<?xml version="1.0" encoding="utf-8"?>
<svg xmlns="http://www.w3.org/2000/svg" xmlns:xlink="http://www.w3.org/1999/xlink" style="margin: auto; background: rgb(255, 255, 255); display: block; shape-rendering: auto;" width="57px" height="57px" viewBox="0 0 100 100" preserveAspectRatio="xMidYMid">
<g transform="rotate(0 50 50)">
  <rect x="48" y="30" rx="2" ry="2.4" width="4" height="12" fill="#004494">
    <animate attributeName="opacity" values="1;0" keyTimes="0;1" dur="1.2195121951219512s" begin="-1.125703564727955s" repeatCount="indefinite"></animate>
  </rect>
</g><g transform="rotate(27.692307692307693 50 50)">
  <rect x="48" y="30" rx="2" ry="2.4" width="4" height="12" fill="#004494">
    <animate attributeName="opacity" values="1;0" keyTimes="0;1" dur="1.2195121951219512s" begin="-1.0318949343339587s" repeatCount="indefinite"></animate>
  </rect>
</g><g transform="rotate(55.38461538461539 50 50)">
  <rect x="48" y="30" rx="2" ry="2.4" width="4" height="12" fill="#004494">
    <animate attributeName="opacity" values="1;0" keyTimes="0;1" dur="1.2195121951219512s" begin="-0.9380863039399625s" repeatCount="indefinite"></animate>
  </rect>
</g><g transform="rotate(83.07692307692308 50 50)">
  <rect x="48" y="30" rx="2" ry="2.4" width="4" height="12" fill="#004494">
    <animate attributeName="opacity" values="1;0" keyTimes="0;1" dur="1.2195121951219512s" begin="-0.8442776735459662s" repeatCount="indefinite"></animate>
  </rect>
</g><g transform="rotate(110.76923076923077 50 50)">
  <rect x="48" y="30" rx="2" ry="2.4" width="4" height="12" fill="#004494">
    <animate attributeName="opacity" values="1;0" keyTimes="0;1" dur="1.2195121951219512s" begin="-0.7504690431519699s" repeatCount="indefinite"></animate>
  </rect>
</g><g transform="rotate(138.46153846153845 50 50)">
  <rect x="48" y="30" rx="2" ry="2.4" width="4" height="12" fill="#004494">
    <animate attributeName="opacity" values="1;0" keyTimes="0;1" dur="1.2195121951219512s" begin="-0.6566604127579737s" repeatCount="indefinite"></animate>
  </rect>
</g><g transform="rotate(166.15384615384616 50 50)">
  <rect x="48" y="30" rx="2" ry="2.4" width="4" height="12" fill="#004494">
    <animate attributeName="opacity" values="1;0" keyTimes="0;1" dur="1.2195121951219512s" begin="-0.5628517823639775s" repeatCount="indefinite"></animate>
  </rect>
</g><g transform="rotate(193.84615384615384 50 50)">
  <rect x="48" y="30" rx="2" ry="2.4" width="4" height="12" fill="#004494">
    <animate attributeName="opacity" values="1;0" keyTimes="0;1" dur="1.2195121951219512s" begin="-0.46904315196998125s" repeatCount="indefinite"></animate>
  </rect>
</g><g transform="rotate(221.53846153846155 50 50)">
  <rect x="48" y="30" rx="2" ry="2.4" width="4" height="12" fill="#004494">
    <animate attributeName="opacity" values="1;0" keyTimes="0;1" dur="1.2195121951219512s" begin="-0.37523452157598497s" repeatCount="indefinite"></animate>
  </rect>
</g><g transform="rotate(249.23076923076923 50 50)">
  <rect x="48" y="30" rx="2" ry="2.4" width="4" height="12" fill="#004494">
    <animate attributeName="opacity" values="1;0" keyTimes="0;1" dur="1.2195121951219512s" begin="-0.28142589118198874s" repeatCount="indefinite"></animate>
  </rect>
</g><g transform="rotate(276.9230769230769 50 50)">
  <rect x="48" y="30" rx="2" ry="2.4" width="4" height="12" fill="#004494">
    <animate attributeName="opacity" values="1;0" keyTimes="0;1" dur="1.2195121951219512s" begin="-0.18761726078799248s" repeatCount="indefinite"></animate>
  </rect>
</g><g transform="rotate(304.61538461538464 50 50)">
  <rect x="48" y="30" rx="2" ry="2.4" width="4" height="12" fill="#004494">
    <animate attributeName="opacity" values="1;0" keyTimes="0;1" dur="1.2195121951219512s" begin="-0.09380863039399624s" repeatCount="indefinite"></animate>
  </rect>
</g><g transform="rotate(332.3076923076923 50 50)">
  <rect x="48" y="30" rx="2" ry="2.4" width="4" height="12" fill="#004494">
    <animate attributeName="opacity" values="1;0" keyTimes="0;1" dur="1.2195121951219512s" begin="0s" repeatCount="indefinite"></animate>
  </rect>
</g>
<!-- [ldio] generated by https://loading.io/ --></svg>